<?xml version="1.0" encoding="UTF-8"?>
<svg version="1.1" xmlns="http://www.w3.org/2000/svg" width="1080" height="1080">
<path d="M0 0 C1.09715836 -0.00540298 2.19431671 -0.01080597 3.32472229 -0.01637268 C6.92908219 -0.02881617 10.53263642 -0.012396 14.13696289 0.00561523 C16.65605206 0.00546013 19.17514147 0.00396934 21.69422913 0.00120544 C26.96551199 -0.00017663 32.23658884 0.01190811 37.5078125 0.03515625 C43.57852995 0.0617473 49.64886492 0.06351458 55.71962065 0.05176789 C61.5881449 0.04093973 67.45653097 0.04732106 73.32504463 0.06132317 C75.80921594 0.06582324 78.29339845 0.06618716 80.77757072 0.06225777 C84.25689199 0.05933043 87.73560018 0.07592662 91.21484375 0.09765625 C92.23073578 0.0931546 93.24662781 0.08865295 94.29330444 0.08401489 C103.3575147 0.17753781 111.47768338 1.48115467 118.17211914 8.00170898 C118.98680664 8.77514648 119.80149414 9.54858398 120.64086914 10.34545898 C122.67211914 12.50170898 122.67211914 12.50170898 124.67211914 15.50170898 C125.47284182 15.28980032 126.27356451 15.07789165 127.09855151 14.8595615 C137.12187091 12.43499998 146.50530906 12.06984893 156.76470947 12.10057068 C158.55983302 12.09495517 160.35495291 12.08804863 162.15006709 12.07997471 C167.04745583 12.06174114 171.94469003 12.06200707 176.84210491 12.06555784 C182.13728352 12.06617288 187.4324138 12.04958548 192.72756958 12.03538513 C203.08566351 12.01053434 213.4437062 12.00222389 223.80182746 12.000548 C232.22056113 11.99912006 240.63927795 11.9929436 249.05800629 11.98344612 C272.94113145 11.9570518 296.82421627 11.94318502 320.70735613 11.94543754 C321.99316933 11.94555741 323.27898253 11.94567728 324.60375977 11.94580078 C326.53483979 11.94598474 326.53483979 11.94598474 328.50493154 11.94617242 C349.39070241 11.94739303 370.27631136 11.91864722 391.16203538 11.87638568 C412.62147393 11.83330635 434.08083344 11.81257419 455.54031634 11.81516701 C467.58284782 11.81616292 479.62520923 11.80792059 491.66770172 11.77563286 C501.91453654 11.74833438 512.1611241 11.7417789 522.40797952 11.76216113 C527.63467659 11.77196299 532.86089906 11.77210517 538.08755112 11.74610138 C542.87423392 11.72253116 547.66006509 11.72677275 552.44672689 11.75295378 C554.17595378 11.75756424 555.90524398 11.7520891 557.63439623 11.73537355 C566.96056673 11.65120503 575.47006524 11.65699364 582.67211914 18.50170898 C583.02327955 19.20715912 583.37443995 19.91260925 583.73624158 20.63943666 C584.57923781 22.8627855 584.57923781 22.8627855 587.67211914 23.50170898 C588.80493164 25.39233398 588.80493164 25.39233398 589.79711914 27.75170898 C590.12969727 28.51999023 590.46227539 29.28827148 590.80493164 30.07983398 C592.60486553 35.10667638 592.82494396 39.94094539 592.83325195 45.23852539 C592.83821686 46.00187195 592.84318176 46.76521851 592.84829712 47.55169678 C592.86286093 50.06889766 592.86971248 52.58603544 592.87524414 55.10327148 C592.87807152 55.96756145 592.8808989 56.83185143 592.88381195 57.722332 C592.89878445 62.29967299 592.90802505 66.87698265 592.91235352 71.4543457 C592.91782299 76.15809485 592.94182426 80.86155232 592.97032547 85.56521034 C592.98905358 89.20287888 592.99416292 92.84047872 592.99568939 96.47819138 C592.99869554 98.21075401 593.00665427 99.94331604 593.01987457 101.67583084 C593.18787082 125.39202226 593.18787082 125.39202226 585.55493164 134.71264648 C579.03643031 140.90657513 572.21608311 143.64472087 563.37133789 143.53686523 C561.90453401 143.54057892 560.43773438 143.54650851 558.97094727 143.55444336 C556.66587555 143.56498896 554.36389517 143.56428023 552.05908203 143.52587891 C543.23997935 143.08085017 543.23997935 143.08085017 535.37084961 146.22412109 C533.83158596 148.26356328 532.7384625 150.18675547 531.67211914 152.50170898 C527.98783637 158.34385037 527.98783637 158.34385037 525.67211914 159.50170898 C524.5386138 161.51840726 524.5386138 161.51840726 523.67211914 163.50170898 C523.01211914 163.50170898 522.35211914 163.50170898 521.67211914 163.50170898 C521.42461914 164.21713867 521.17711914 164.93256836 520.92211914 165.66967773 C519.53348319 168.81580605 517.82747968 171.13981861 515.67211914 173.81420898 C514.97086914 174.6972168 514.26961914 175.58022461 513.54711914 176.48999023 C512.61899414 177.48579102 512.61899414 177.48579102 511.67211914 178.50170898 C511.01211914 178.50170898 510.35211914 178.50170898 509.67211914 178.50170898 C509.59219727 179.05600586 509.51227539 179.61030273 509.42993164 180.18139648 C508.41374846 183.29280273 506.67818774 185.14889024 504.54711914 187.62670898 C500.8115364 192.06420059 497.41425806 196.59553127 494.17993164 201.40795898 C492.80304369 203.31990702 491.34606537 204.85645898 489.67211914 206.50170898 C489.34211914 207.16170898 489.01211914 207.82170898 488.67211914 208.50170898 C488.01211914 208.50170898 487.35211914 208.50170898 486.67211914 208.50170898 C486.46586914 209.18233398 486.25961914 209.86295898 486.04711914 210.56420898 C484.49636317 213.87718765 482.54741191 216.15951048 480.10961914 218.85327148 C478.47937227 220.65130832 478.47937227 220.65130832 476.67211914 223.50170898 C476.01211914 223.50170898 475.35211914 223.50170898 474.67211914 223.50170898 C474.46071289 224.17588867 474.24930664 224.85006836 474.03149414 225.54467773 C472.22200899 229.4808279 469.67354369 232.49333745 466.92211914 235.81420898 C465.82617416 237.15853364 464.73111105 238.50357774 463.63696289 239.84936523 C462.85748291 240.80480225 462.85748291 240.80480225 462.06225586 241.77954102 C460.48467925 243.7339185 458.97058479 245.72692293 457.48461914 247.75170898 C454.39647503 251.94865261 451.04401673 255.92205458 447.72290039 259.93530273 C446.09306011 261.97493143 444.62526314 263.98605388 443.23461914 266.18920898 C442.71899414 266.95233398 442.20336914 267.71545898 441.67211914 268.50170898 C441.01211914 268.50170898 440.35211914 268.50170898 439.67211914 268.50170898 C439.01211914 270.15170898 438.35211914 271.80170898 437.67211914 273.50170898 C437.01211914 273.50170898 436.35211914 273.50170898 435.67211914 273.50170898 C435.42461914 274.21713867 435.17711914 274.93256836 434.92211914 275.66967773 C433.53348319 278.81580605 431.82747968 281.13981861 429.67211914 283.81420898 C428.97086914 284.6972168 428.26961914 285.58022461 427.54711914 286.48999023 C426.92836914 287.15385742 426.30961914 287.81772461 425.67211914 288.50170898 C425.01211914 288.50170898 424.35211914 288.50170898 423.67211914 288.50170898 C423.56899414 289.09983398 423.46586914 289.69795898 423.35961914 290.31420898 C422.57300058 292.81708622 421.53666083 293.71485653 419.67211914 295.50170898 C419.34211914 296.49170898 419.01211914 297.48170898 418.67211914 298.50170898 C417.54708222 299.62674591 416.41800143 300.74800557 415.26977539 301.84936523 C410.39888091 306.8869896 406.23509376 312.48469709 402.67211914 318.50170898 C401.69191539 319.52112088 400.69408906 320.52417254 399.67211914 321.50170898 C399.01211914 322.49170898 398.35211914 323.48170898 397.67211914 324.50170898 C399.18672729 324.51572754 399.18672729 324.51572754 400.73193359 324.5300293 C429.40116848 324.8403024 456.6181754 325.98247063 483.67211914 336.50170898 C484.88919556 336.96275024 484.88919556 336.96275024 486.13085938 337.43310547 C492.17201379 339.77000568 497.89256866 342.5257447 503.60961914 345.56420898 C504.44557617 345.99797852 505.2815332 346.43174805 506.14282227 346.87866211 C506.94526367 347.30211914 507.74770508 347.72557617 508.57446289 348.16186523 C509.29110107 348.53964111 510.00773926 348.91741699 510.74609375 349.30664062 C512.70032625 350.51921105 514.08365717 351.85200173 515.67211914 353.50170898 C517.33501181 354.50797224 519.00228093 355.50701399 520.67211914 356.50170898 C522.84170679 358.10378247 524.98295361 359.72014846 527.10961914 361.37670898 C527.65682617 361.79823242 528.2040332 362.21975586 528.76782227 362.65405273 C539.41575783 370.89517682 539.41575783 370.89517682 542.79711914 375.12670898 C544.50161972 377.19902285 545.86537009 378.64410442 548.04711914 380.25170898 C548.58336914 380.66420898 549.11961914 381.07670898 549.67211914 381.50170898 C549.67211914 382.49170898 549.67211914 383.48170898 549.67211914 384.50170898 C550.24446289 384.71827148 550.81680664 384.93483398 551.40649414 385.15795898 C554.42097474 386.94585782 555.89878372 389.15405173 557.92211914 392.00170898 C558.98172852 393.47124023 558.98172852 393.47124023 560.06274414 394.97045898 C561.67211914 397.50170898 561.67211914 397.50170898 561.67211914 399.50170898 C562.33211914 399.50170898 562.99211914 399.50170898 563.67211914 399.50170898 C564.00211914 401.15170898 564.33211914 402.80170898 564.67211914 404.50170898 C565.33211914 404.50170898 565.99211914 404.50170898 566.67211914 404.50170898 C573.68775804 416.64416093 580.18096051 429.19570003 584.67211914 442.50170898 C584.88465332 443.11046875 585.0971875 443.71922852 585.31616211 444.34643555 C595.63072142 474.52466859 593.14615949 508.27802905 593.06323242 539.65698242 C593.04614171 546.18868653 593.05629661 552.72002407 593.07354546 559.25171566 C593.22636288 627.22019353 593.22636288 627.22019353 584.40551758 653.32836914 C583.74510168 655.28543383 583.1314037 657.25811459 582.52368164 659.23217773 C580.80048136 664.54232328 578.75743578 669.44581301 576.06665039 674.33374023 C575.37007324 675.60096924 575.37007324 675.60096924 574.65942383 676.89379883 C573.72851211 678.55687037 572.77548876 680.2078076 571.7980957 681.84399414 C569.34136327 685.97709289 569.34136327 685.97709289 568.83569336 690.62329102 C569.39734376 692.77307969 569.39734376 692.77307969 570.67211914 695.50170898 C571.33211914 695.50170898 571.99211914 695.50170898 572.67211914 695.50170898 C574.27656057 697.72184344 575.76696126 699.94324312 577.23461914 702.25170898 C581.1698101 708.31298119 585.31087299 714.09455353 589.69946289 719.83764648 C591.85920336 722.7543653 593.78053219 725.7439759 595.60180664 728.88061523 C596.61532136 730.54342618 596.61532136 730.54342618 598.05102539 731.83374023 C601.19753513 735.07123339 603.39651737 739.10161238 605.83227539 742.88452148 C607.40954205 745.56813839 607.40954205 745.56813839 609.67211914 746.50170898 C610.29711914 749.06420898 610.29711914 749.06420898 610.67211914 751.50170898 C611.66211914 751.83170898 612.65211914 752.16170898 613.67211914 752.50170898 C615.64372617 756.18204211 615.94320188 759.36949267 615.92211914 763.50170898 C615.92727539 764.51233398 615.93243164 765.52295898 615.93774414 766.56420898 C615.57821576 770.54016994 614.77429694 773.32674585 612.01586914 776.26733398 C611.40743164 776.75717773 610.79899414 777.24702148 610.17211914 777.75170898 C609.56368164 778.25186523 608.95524414 778.75202148 608.32836914 779.26733398 C605.40271402 781.44777507 603.54183852 781.63256267 599.9432373 781.65560913 C598.94524109 781.66420959 597.94724487 781.67281006 596.91900635 781.68167114 C595.81981873 781.68593109 594.7206311 781.69019104 593.58813477 781.69458008 C591.85614838 781.70684631 591.85614838 781.70684631 590.08917236 781.71936035 C586.25224327 781.74425401 582.41535138 781.76074375 578.57836914 781.77514648 C576.6139814 781.783132 576.6139814 781.783132 574.60990906 781.79127884 C569.10255122 781.81291635 563.59519631 781.8316483 558.0878067 781.84290123 C550.20931451 781.8591063 542.33131822 781.89218911 534.45301294 781.94930208 C528.90721476 781.98812469 523.36154846 782.00754887 517.81561804 782.01282179 C514.50742319 782.01646095 511.19987552 782.03085863 507.89179993 782.06092453 C504.19124041 782.09262877 500.49192009 782.09260346 496.79125977 782.08520508 C495.70826599 782.10161041 494.62527222 782.11801575 493.50946045 782.13491821 C484.95698729 782.06520751 478.42411521 779.78604938 471.94555664 774.11499023 C471.31907227 773.35573242 470.69258789 772.59647461 470.04711914 771.81420898 C469.39485352 771.0472168 468.74258789 770.28022461 468.07055664 769.48999023 C466.67211914 767.50170898 466.67211914 767.50170898 466.67211914 765.50170898 C465.9839949 765.64970265 465.29587065 765.79769631 464.58689415 765.95017463 C442.15574121 770.60714255 420.36209553 771.2362043 397.51983142 771.16999137 C392.36257819 771.16059128 387.20541416 771.1803248 382.04818726 771.19596863 C371.99370029 771.22183225 361.93939344 771.22103531 351.88488601 771.20993044 C343.71253812 771.20132325 335.54024181 771.2022409 327.36789322 771.20972633 C326.19866943 771.21078122 325.02944563 771.21183611 323.82479081 771.21292296 C321.4487376 771.21509413 319.0726844 771.2172809 316.69663121 771.21948311 C294.5091286 771.23883286 272.32172674 771.22698667 250.13423242 771.20469717 C231.11667938 771.18640579 212.09932013 771.19742159 193.08178711 771.22900391 C170.93817598 771.26577612 148.79468572 771.28278896 126.65104401 771.26959163 C124.28991645 771.26825063 121.92878888 771.26694165 119.56766129 771.26566505 C118.40621671 771.26503439 117.24477213 771.26440372 116.04813226 771.26375395 C107.88104892 771.26073128 99.71405723 771.27196503 91.54699326 771.28891563 C81.60214877 771.30924804 71.65757848 771.30835689 61.71274827 771.28028324 C56.64367063 771.26652705 51.5750716 771.26229231 46.50601196 771.28423309 C41.86169935 771.30407037 37.21828561 771.29595616 32.57403471 771.26603875 C30.89909446 771.26005702 29.22408048 771.26407401 27.54919969 771.27940198 C16.69348752 771.37147184 7.08218943 770.33391703 -1.34731305 762.66432685 C-8.04563408 755.44704961 -9.47483662 747.92015081 -9.48901367 738.3659668 C-9.49397858 737.56039337 -9.49894348 736.75481995 -9.50405884 735.92483521 C-9.51862523 733.26815933 -9.52547359 730.61154318 -9.53100586 727.95483398 C-9.5367623 726.10024007 -9.54251997 724.24564616 -9.54827881 722.39105225 C-9.5587734 718.50410689 -9.564626 714.61718213 -9.56811523 710.73022461 C-9.5735936 705.76621283 -9.59761414 700.8024762 -9.62608719 695.83855057 C-9.64477475 692.00709251 -9.64992244 688.1756999 -9.65145111 684.34420013 C-9.65446487 682.51508837 -9.66244996 680.68597742 -9.67563629 678.85691071 C-9.69282361 676.28940818 -9.69078583 673.72256709 -9.68432617 671.1550293 C-9.69354095 670.40977997 -9.70275574 669.66453064 -9.71224976 668.896698 C-9.65575944 661.67523397 -7.80741299 654.71360588 -3.32788086 648.93920898 C-2.83288086 648.27791992 -2.33788086 647.61663086 -1.82788086 646.93530273 C-0.32788086 645.50170898 -0.32788086 645.50170898 2.67211914 645.50170898 C2.67211914 644.84170898 2.67211914 644.18170898 2.67211914 643.50170898 C8.24734902 639.51940193 13.25212359 639.39171977 19.94946289 639.46655273 C21.3641837 639.4628408 22.77890011 639.4569131 24.19360352 639.44897461 C26.40432434 639.4384158 28.61181185 639.43924697 30.82226562 639.47753906 C39.36511874 639.89801893 39.36511874 639.89801893 46.953125 636.75952148 C48.49242192 634.72602313 49.61487942 632.81615325 50.67211914 630.50170898 C53.56497628 625.57313756 53.56497628 625.57313756 56.67211914 623.50170898 C57.00211914 622.51170898 57.33211914 621.52170898 57.67211914 620.50170898 C58.33211914 620.50170898 58.99211914 620.50170898 59.67211914 620.50170898 C60.07817383 619.63545898 60.07817383 619.63545898 60.49243164 618.75170898 C63.34152028 613.31768561 67.36136322 608.81246491 71.67211914 604.50170898 C72.08977539 603.79014648 72.50743164 603.07858398 72.93774414 602.34545898 C75.12845199 598.75348756 77.64186705 595.497438 80.23461914 592.18920898 C80.72897461 591.5440332 81.22333008 590.89885742 81.73266602 590.23413086 C82.99704394 588.61730118 84.32962939 587.05429103 85.67211914 585.50170898 C86.33211914 585.50170898 86.99211914 585.50170898 87.67211914 585.50170898 C87.75204102 584.94741211 87.83196289 584.39311523 87.91430664 583.82202148 C88.93048982 580.71061524 90.66605054 578.85452773 92.79711914 576.37670898 C96.58348994 571.88379052 100.00227899 567.28581929 103.26196289 562.40014648 C104.67211914 560.50170898 104.67211914 560.50170898 106.67211914 559.50170898 C107.80562448 557.48501071 107.80562448 557.48501071 108.67211914 555.50170898 C109.33211914 555.50170898 109.99211914 555.50170898 110.67211914 555.50170898 C111.04336914 554.42856445 111.04336914 554.42856445 111.42211914 553.33374023 C112.81075509 550.18761192 114.5167586 547.86359936 116.67211914 545.18920898 C117.37336914 544.30620117 118.07461914 543.42319336 118.79711914 542.51342773 C119.41586914 541.84956055 120.03461914 541.18569336 120.67211914 540.50170898 C121.33211914 540.50170898 121.99211914 540.50170898 122.67211914 540.50170898 C122.79393555 539.67026367 122.79393555 539.67026367 122.91821289 538.82202148 C123.92507761 535.72317361 125.62717026 533.85648589 127.73461914 531.37670898 C128.54415039 530.41120117 129.35368164 529.44569336 130.18774414 528.45092773 C131.41750977 526.99106445 131.41750977 526.99106445 132.67211914 525.50170898 C138.13658048 518.89357564 138.13658048 518.89357564 143.04711914 511.87670898 C143.58336914 511.09295898 144.11961914 510.30920898 144.67211914 509.50170898 C145.33211914 509.50170898 145.99211914 509.50170898 146.67211914 509.50170898 C146.92864258 508.77209961 147.18516602 508.04249023 147.44946289 507.29077148 C148.73275585 504.36338754 150.20089973 502.33360638 152.23461914 499.87670898 C152.95004883 499.00272461 153.66547852 498.12874023 154.40258789 497.22827148 C155.88233209 495.45054093 157.36401174 493.67441909 158.84790039 491.90014648 C163.66963415 486.09351151 168.15371529 480.15789793 172.39819336 473.9206543 C173.44208727 472.41369867 174.55163436 470.95262028 175.67211914 469.50170898 C176.33211914 469.50170898 176.99211914 469.50170898 177.67211914 469.50170898 C178.33211914 467.85170898 178.99211914 466.20170898 179.67211914 464.50170898 C180.33211914 464.50170898 180.99211914 464.50170898 181.67211914 464.50170898 C181.96086914 463.71795898 182.24961914 462.93420898 182.54711914 462.12670898 C183.67211914 459.50170898 183.67211914 459.50170898 185.67211914 457.50170898 C184.54531738 457.48712646 183.41851562 457.47254395 182.25756836 457.45751953 C138.88859536 456.85207743 87.57052818 453.6797079 54.67211914 420.50170898 C54.01211914 420.17170898 53.35211914 419.84170898 52.67211914 419.50170898 C52.67211914 418.84170898 52.67211914 418.18170898 52.67211914 417.50170898 C52.13200195 417.27741211 51.59188477 417.05311523 51.03540039 416.82202148 C47.92459842 415.08408584 45.4495238 412.79136615 42.85961914 410.37670898 C42.0682959 409.6439978 42.0682959 409.6439978 41.26098633 408.89648438 C37.14545511 405.04022406 32.95282295 401.11086681 29.67211914 396.50170898 C29.67211914 395.84170898 29.67211914 395.18170898 29.67211914 394.50170898 C29.01211914 394.50170898 28.35211914 394.50170898 27.67211914 394.50170898 C26.73584683 393.18399239 25.81360973 391.85464856 24.95336914 390.48608398 C22.82347772 387.18734972 20.4697737 384.04366664 18.16040039 380.86889648 C16.77674826 378.66812696 16.11065752 377.03938443 15.67211914 374.50170898 C15.01211914 374.50170898 14.35211914 374.50170898 13.67211914 374.50170898 C12.49840148 372.15427367 11.32623266 369.80620273 10.16040039 367.45483398 C9.20372964 365.55655817 8.22369579 363.66978148 7.21508789 361.79858398 C2.58045449 353.04291772 -0.49044708 343.96119432 -3.32788086 334.50170898 C-3.63387207 333.48802246 -3.63387207 333.48802246 -3.94604492 332.45385742 C-9.84689929 312.41491543 -9.63680151 291.76897711 -9.59653187 271.05067706 C-9.5913692 267.54827266 -9.59619104 264.04587725 -9.5993042 260.54347229 C-9.60291413 254.66958702 -9.59822336 248.79575251 -9.58862305 242.921875 C-9.57773919 236.18600888 -9.5812757 229.45026391 -9.59227586 222.71440071 C-9.60142841 216.87000176 -9.6025957 211.02563872 -9.59739852 205.1812349 C-9.59432275 201.71731944 -9.59374531 198.25346042 -9.6004715 194.78954887 C-9.65057472 157.18100708 -9.65057472 157.18100708 -5.07788086 140.31420898 C-4.86462158 139.49525146 -4.6513623 138.67629395 -4.43164062 137.83251953 C-2.27948989 129.83848467 0.52956312 122.15352821 3.67211914 114.50170898 C4.0446582 113.58518555 4.41719727 112.66866211 4.80102539 111.72436523 C6.68156257 107.2921972 8.91358055 103.46710821 11.67211914 99.50170898 C14.24639973 95.38661812 16.73270762 91.30314566 17.67211914 86.50170898 C16.66295091 83.92688779 16.66295091 83.92688779 14.67211914 81.50170898 C13.77151445 80.27603397 12.87587986 79.04669524 11.98461914 77.81420898 C11.54762695 77.2328418 11.11063477 76.65147461 10.66040039 76.05249023 C9.67211914 74.50170898 9.67211914 74.50170898 9.67211914 72.50170898 C9.01211914 72.50170898 8.35211914 72.50170898 7.67211914 72.50170898 C6.63422333 70.85837394 5.6364399 69.18927032 4.67211914 67.50170898 C4.01211914 66.84170898 3.35211914 66.18170898 2.67211914 65.50170898 C2.67211914 64.51170898 2.67211914 63.52170898 2.67211914 62.50170898 C2.01211914 62.50170898 1.35211914 62.50170898 0.67211914 62.50170898 C-0.70288086 60.80639648 -0.70288086 60.80639648 -2.32788086 58.37670898 C-5.27417055 54.04320789 -8.27141018 49.75761286 -11.32788086 45.50170898 C-12.99574301 43.16922903 -14.66185972 40.83550417 -16.32788086 38.50170898 C-17.02913086 37.51944336 -17.73038086 36.53717773 -18.45288086 35.52514648 C-19.07163086 34.65116211 -19.69038086 33.77717773 -20.32788086 32.87670898 C-20.86413086 32.12131836 -21.40038086 31.36592773 -21.95288086 30.58764648 C-25.86386366 24.65450781 -26.17693749 19.54707253 -25.32788086 12.50170898 C-23.99467559 8.48914944 -22.04983314 5.60618054 -18.45830441 3.30255032 C-12.21920413 0.38572487 -6.82920478 -0.06486245 0 0 Z M200.67211914 143.50170898 C202.32211914 146.80170898 203.97211914 150.10170898 205.67211914 153.50170898 C206.33211914 153.50170898 206.99211914 153.50170898 207.67211914 153.50170898 C207.77008789 154.21842773 207.86805664 154.93514648 207.96899414 155.67358398 C208.7739291 158.91121128 210.06388233 160.98859164 211.92211914 163.75170898 C215.08254051 168.5542462 217.9577575 173.43573449 220.67211914 178.50170898 C221.33211914 178.50170898 221.99211914 178.50170898 222.67211914 178.50170898 C222.82100586 179.5787207 222.82100586 179.5787207 222.97290039 180.67749023 C223.76775099 183.88797617 225.02373186 185.94550989 226.85961914 188.68920898 C230.27082857 193.88559495 233.49424734 199.16049722 236.67211914 204.50170898 C238.17025765 207.00282661 239.67120426 209.50225669 241.17211914 212.00170898 C243.23153047 215.43121749 245.29074601 218.86071565 247.33618164 222.29858398 C248.77025196 224.70659511 250.21983034 227.10465166 251.67211914 229.50170898 C252.21352539 230.41694336 252.75493164 231.33217773 253.31274414 232.27514648 C260.30146246 243.76560679 268.78559305 252.4430117 282.05883789 255.92749023 C293.54008032 258.45027445 305.01948229 257.44771906 315.36352539 251.52124023 C318.278239 249.63201028 321.05788329 247.78916535 323.67211914 245.50170898 C323.67211914 244.84170898 323.67211914 244.18170898 323.67211914 243.50170898 C324.53836914 243.19233398 324.53836914 243.19233398 325.42211914 242.87670898 C328.5168955 240.98545677 329.86399544 238.60134962 331.67211914 235.50170898 C331.67211914 234.84170898 331.67211914 234.18170898 331.67211914 233.50170898 C332.33211914 233.50170898 332.99211914 233.50170898 333.67211914 233.50170898 C334.02274414 232.71795898 334.37336914 231.93420898 334.73461914 231.12670898 C336.72722204 227.11303743 339.37793086 223.58826643 341.97680664 219.95092773 C343.35507076 217.95974893 344.57863127 215.99925814 345.73461914 213.87670898 C347.23709776 211.25948817 348.70378105 209.10470386 350.54711914 206.75170898 C354.76801186 201.26347444 358.47737908 195.08592916 360.67211914 188.50170898 C361.33211914 188.50170898 361.99211914 188.50170898 362.67211914 188.50170898 C363.15680664 187.61870117 363.64149414 186.73569336 364.14086914 185.82592773 C368.02247362 178.84548947 372.11745801 172.30010526 376.92211914 165.90014648 C379.12371034 162.88278712 380.87556931 159.77399617 382.67211914 156.50170898 C383.41253151 155.39109044 384.16233916 154.28666896 384.92211914 153.18920898 C386.8540102 150.75688427 386.8540102 150.75688427 386.67211914 148.50170898 C387.33211914 148.50170898 387.99211914 148.50170898 388.67211914 148.50170898 C389.00211914 146.85170898 389.33211914 145.20170898 389.67211914 143.50170898 C327.30211914 143.50170898 264.93211914 143.50170898 200.67211914 143.50170898 Z M121.67211914 229.50170898 C121.64700636 233.67854443 121.62906851 237.85533744 121.6171875 242.03222656 C121.61222357 243.44694791 121.60545022 244.86166432 121.59667969 246.27636719 C121.4611491 268.73458308 123.66419695 287.32247542 139.67211914 304.50170898 C142.2381981 306.96953717 144.90485556 309.2624745 147.67211914 311.50170898 C148.7665332 312.38729492 148.7665332 312.38729492 149.88305664 313.29077148 C162.65432998 322.92226334 175.01274358 325.46583413 190.67211914 325.50170898 C189.35211914 323.19170898 188.03211914 320.88170898 186.67211914 318.50170898 C186.01211914 318.50170898 185.35211914 318.50170898 184.67211914 318.50170898 C184.41430664 317.7862793 184.15649414 317.07084961 183.89086914 316.33374023 C182.59827149 313.33010787 181.04434824 310.86665527 179.17211914 308.18920898 C178.56368164 307.30620117 177.95524414 306.42319336 177.32836914 305.51342773 C176.50852539 304.51762695 176.50852539 304.51762695 175.67211914 303.50170898 C175.01211914 303.50170898 174.35211914 303.50170898 173.67211914 303.50170898 C173.43750977 302.81334961 173.20290039 302.12499023 172.96118164 301.41577148 C171.40698195 297.90233825 169.311291 294.95361685 167.04711914 291.87670898 C166.38377563 290.96127319 166.38377563 290.96127319 165.70703125 290.02734375 C164.36766704 288.18129711 163.02116958 286.34068565 161.67211914 284.50170898 C160.1922204 282.4814117 158.71297557 280.46063513 157.23461914 278.43920898 C156.30842773 277.18430664 156.30842773 277.18430664 155.36352539 275.90405273 C153.67211914 273.50170898 153.67211914 273.50170898 152.07446289 270.69311523 C151.61168945 269.96995117 151.14891602 269.24678711 150.67211914 268.50170898 C150.01211914 268.50170898 149.35211914 268.50170898 148.67211914 268.50170898 C148.42075195 267.78885742 148.16938477 267.07600586 147.91040039 266.34155273 C146.55213575 263.22654202 144.88290092 260.79157734 142.85961914 258.06420898 C142.14805664 257.10385742 141.43649414 256.14350586 140.70336914 255.15405273 C139.12995743 253.09954014 137.53696287 251.09554232 135.85961914 249.12670898 C133.67211914 246.50170898 133.67211914 246.50170898 132.29711914 244.18920898 C130.227155 240.76580674 127.77764229 237.71856182 125.29321289 234.58764648 C124.01617561 232.94442261 122.82650994 231.23329519 121.67211914 229.50170898 Z M400.67211914 457.50170898 C405.23644469 465.06137317 410.22916962 472.331983 415.85571289 479.14624023 C417.67211914 481.50170898 417.67211914 481.50170898 418.67211914 484.50170898 C419.33211914 484.50170898 419.99211914 484.50170898 420.67211914 484.50170898 C420.92993164 485.04311523 421.18774414 485.58452148 421.45336914 486.14233398 C422.89678208 488.9366334 424.50650448 491.58390245 426.17211914 494.25170898 C426.78055664 495.23655273 427.38899414 496.22139648 428.01586914 497.23608398 C428.56243164 497.98374023 429.10899414 498.73139648 429.67211914 499.50170898 C430.33211914 499.50170898 430.99211914 499.50170898 431.67211914 499.50170898 C431.9312207 500.22616211 432.19032227 500.95061523 432.45727539 501.69702148 C433.72293617 504.61902933 435.20246076 506.83118783 437.10961914 509.37670898 C437.81344727 510.32545898 438.51727539 511.27420898 439.24243164 512.25170898 C439.62818359 512.76733398 440.01393555 513.28295898 440.41137695 513.81420898 C442.29092188 516.32997477 444.15606995 518.85623598 446.01806641 521.38500977 C446.97699228 522.68730996 447.93832198 523.98784445 448.90234375 525.28637695 C450.87516354 527.96074671 452.70751028 530.56305362 454.37133789 533.44702148 C454.8005957 534.12506836 455.22985352 534.80311523 455.67211914 535.50170898 C456.33211914 535.50170898 456.99211914 535.50170898 457.67211914 535.50170898 C458.33211914 537.15170898 458.99211914 538.80170898 459.67211914 540.50170898 C460.00211914 540.50170898 460.33211914 540.50170898 460.67211914 540.50170898 C460.73105599 536.56427379 460.76602583 532.62695471 460.79711914 528.68920898 C460.81387695 527.58899414 460.83063477 526.4887793 460.84790039 525.35522461 C460.94203787 509.39892162 457.34473124 494.80597356 446.67211914 482.50170898 C446.1268457 481.82624023 445.58157227 481.15077148 445.01977539 480.45483398 C441.12844654 475.76053252 436.9113062 471.68135355 431.67211914 468.50170898 C431.01211914 468.50170898 430.35211914 468.50170898 429.67211914 468.50170898 C429.67211914 467.84170898 429.67211914 467.18170898 429.67211914 466.50170898 C420.15763338 461.75715209 411.53093263 457.50170898 400.67211914 457.50170898 Z M258.67211914 535.50170898 C257.83578065 537.67234146 257.83578065 537.67234146 257.67211914 539.50170898 C257.01211914 539.50170898 256.35211914 539.50170898 255.67211914 539.50170898 C254.02317731 541.9314112 252.48935038 544.35957663 250.98461914 546.87670898 C247.58120623 552.45941397 244.10126372 557.90903613 240.24243164 563.19311523 C238.59028022 565.62202441 237.14824512 568.13809049 235.70776367 570.69677734 C234.08353578 573.52749794 232.3162827 576.25983188 230.54711914 579.00170898 C229.9711499 579.89466675 229.9711499 579.89466675 229.38354492 580.80566406 C226.06525296 585.93289996 222.67603545 591.01178912 219.27661133 596.08544922 C216.16160837 600.74268403 213.12965478 605.44727294 210.14477539 610.18920898 C208.87874597 612.17724458 207.57280532 614.12453843 206.23461914 616.06420898 C204.49223044 618.29978391 204.49223044 618.29978391 204.67211914 620.50170898 C204.01211914 620.50170898 203.35211914 620.50170898 202.67211914 620.50170898 C202.42719727 621.21069336 202.18227539 621.91967773 201.92993164 622.65014648 C200.05037738 626.91124775 197.18032327 630.30421963 194.35180664 633.97827148 C192.39506649 636.41270716 192.39506649 636.41270716 192.67211914 639.50170898 C257.68211914 639.50170898 322.69211914 639.50170898 389.67211914 639.50170898 C387.81161904 635.16054207 386.25639432 631.54870473 383.85961914 627.62670898 C383.33754883 626.77206055 382.81547852 625.91741211 382.27758789 625.03686523 C380.78510102 622.68011589 379.24308212 620.36911267 377.67211914 618.06420898 C374.87959471 613.93359993 372.51617732 609.6408047 370.16430664 605.24780273 C366.03210693 597.64325719 361.34594178 590.34621129 356.80493164 582.98217773 C353.43214474 577.49322398 350.13283934 571.95998276 346.82641602 566.4309082 C345.26689418 563.82444848 343.70402442 561.22000449 342.14086914 558.61572266 C341.37756272 557.34392136 340.61453616 556.07195205 339.85180664 554.79980469 C338.18696945 552.02323114 336.51911461 549.24866303 334.84399414 546.47827148 C334.31290039 545.59913086 333.78180664 544.71999023 333.23461914 543.81420898 C332.7821582 543.0678418 332.32969727 542.32147461 331.86352539 541.55249023 C330.67211914 539.50170898 330.67211914 539.50170898 329.66040039 537.39624023 C327.42814893 533.11702302 323.94908358 530.49762572 319.67211914 528.50170898 C319.25188477 528.04280273 318.83165039 527.58389648 318.39868164 527.11108398 C316.19146681 525.05368011 313.93088516 524.08552313 311.17211914 522.87670898 C310.21305664 522.45131836 309.25399414 522.02592773 308.26586914 521.58764648 C290.41338276 514.11326213 270.72470445 521.31944355 258.67211914 535.50170898 Z " fill="#DBC960" transform="translate(244.327880859375,148.498291015625)"/>
<path d="M0 0 C1.09715836 -0.00540298 2.19431671 -0.01080597 3.32472229 -0.01637268 C6.92908219 -0.02881617 10.53263642 -0.012396 14.13696289 0.00561523 C16.65605206 0.00546013 19.17514147 0.00396934 21.69422913 0.00120544 C26.96551199 -0.00017663 32.23658884 0.01190811 37.5078125 0.03515625 C43.57852995 0.0617473 49.64886492 0.06351458 55.71962065 0.05176789 C61.5881449 0.04093973 67.45653097 0.04732106 73.32504463 0.06132317 C75.80921594 0.06582324 78.29339845 0.06618716 80.77757072 0.06225777 C84.25689199 0.05933043 87.73560018 0.07592662 91.21484375 0.09765625 C92.23073578 0.0931546 93.24662781 0.08865295 94.29330444 0.08401489 C103.3575147 0.17753781 111.47768338 1.48115467 118.17211914 8.00170898 C118.98680664 8.77514648 119.80149414 9.54858398 120.64086914 10.34545898 C122.67211914 12.50170898 122.67211914 12.50170898 124.67211914 15.50170898 C125.47284182 15.28980032 126.27356451 15.07789165 127.09855151 14.8595615 C137.12187091 12.43499998 146.50530906 12.06984893 156.76470947 12.10057068 C158.55983302 12.09495517 160.35495291 12.08804863 162.15006709 12.07997471 C167.04745583 12.06174114 171.94469003 12.06200707 176.84210491 12.06555784 C182.13728352 12.06617288 187.4324138 12.04958548 192.72756958 12.03538513 C203.08566351 12.01053434 213.4437062 12.00222389 223.80182746 12.000548 C232.22056113 11.99912006 240.63927795 11.9929436 249.05800629 11.98344612 C272.94113145 11.9570518 296.82421627 11.94318502 320.70735613 11.94543754 C321.99316933 11.94555741 323.27898253 11.94567728 324.60375977 11.94580078 C326.53483979 11.94598474 326.53483979 11.94598474 328.50493154 11.94617242 C349.39070241 11.94739303 370.27631136 11.91864722 391.16203538 11.87638568 C412.62147393 11.83330635 434.08083344 11.81257419 455.54031634 11.81516701 C467.58284782 11.81616292 479.62520923 11.80792059 491.66770172 11.77563286 C501.91453654 11.74833438 512.1611241 11.7417789 522.40797952 11.76216113 C527.63467659 11.77196299 532.86089906 11.77210517 538.08755112 11.74610138 C542.87423392 11.72253116 547.66006509 11.72677275 552.44672689 11.75295378 C554.17595378 11.75756424 555.90524398 11.7520891 557.63439623 11.73537355 C566.96056673 11.65120503 575.47006524 11.65699364 582.67211914 18.50170898 C583.02327955 19.20715912 583.37443995 19.91260925 583.73624158 20.63943666 C584.57923781 22.8627855 584.57923781 22.8627855 587.67211914 23.50170898 C588.80493164 25.39233398 588.80493164 25.39233398 589.79711914 27.75170898 C590.12969727 28.51999023 590.46227539 29.28827148 590.80493164 30.07983398 C592.60486553 35.10667638 592.82494396 39.94094539 592.83325195 45.23852539 C592.83821686 46.00187195 592.84318176 46.76521851 592.84829712 47.55169678 C592.86286093 50.06889766 592.86971248 52.58603544 592.87524414 55.10327148 C592.87807152 55.96756145 592.8808989 56.83185143 592.88381195 57.722332 C592.89878445 62.29967299 592.90802505 66.87698265 592.91235352 71.4543457 C592.91782299 76.15809485 592.94182426 80.86155232 592.97032547 85.56521034 C592.98905358 89.20287888 592.99416292 92.84047872 592.99568939 96.47819138 C592.99869554 98.21075401 593.00665427 99.94331604 593.01987457 101.67583084 C593.18787082 125.39202226 593.18787082 125.39202226 585.55493164 134.71264648 C579.03643031 140.90657513 572.21608311 143.64472087 563.37133789 143.53686523 C561.90453401 143.54057892 560.43773438 143.54650851 558.97094727 143.55444336 C556.66587555 143.56498896 554.36389517 143.56428023 552.05908203 143.52587891 C543.23997935 143.08085017 543.23997935 143.08085017 535.37084961 146.22412109 C533.83158596 148.26356328 532.7384625 150.18675547 531.67211914 152.50170898 C527.98783637 158.34385037 527.98783637 158.34385037 525.67211914 159.50170898 C524.5386138 161.51840726 524.5386138 161.51840726 523.67211914 163.50170898 C523.01211914 163.50170898 522.35211914 163.50170898 521.67211914 163.50170898 C521.42461914 164.21713867 521.17711914 164.93256836 520.92211914 165.66967773 C519.53348319 168.81580605 517.82747968 171.13981861 515.67211914 173.81420898 C514.97086914 174.6972168 514.26961914 175.58022461 513.54711914 176.48999023 C512.61899414 177.48579102 512.61899414 177.48579102 511.67211914 178.50170898 C511.01211914 178.50170898 510.35211914 178.50170898 509.67211914 178.50170898 C509.59219727 179.05600586 509.51227539 179.61030273 509.42993164 180.18139648 C508.41374846 183.29280273 506.67818774 185.14889024 504.54711914 187.62670898 C500.8115364 192.06420059 497.41425806 196.59553127 494.17993164 201.40795898 C492.80304369 203.31990702 491.34606537 204.85645898 489.67211914 206.50170898 C489.34211914 207.16170898 489.01211914 207.82170898 488.67211914 208.50170898 C488.01211914 208.50170898 487.35211914 208.50170898 486.67211914 208.50170898 C486.46586914 209.18233398 486.25961914 209.86295898 486.04711914 210.56420898 C484.49636317 213.87718765 482.54741191 216.15951048 480.10961914 218.85327148 C478.47937227 220.65130832 478.47937227 220.65130832 476.67211914 223.50170898 C476.01211914 223.50170898 475.35211914 223.50170898 474.67211914 223.50170898 C474.46071289 224.17588867 474.24930664 224.85006836 474.03149414 225.54467773 C472.22200899 229.4808279 469.67354369 232.49333745 466.92211914 235.81420898 C465.82617416 237.15853364 464.73111105 238.50357774 463.63696289 239.84936523 C462.85748291 240.80480225 462.85748291 240.80480225 462.06225586 241.77954102 C460.48467925 243.7339185 458.97058479 245.72692293 457.48461914 247.75170898 C454.39647503 251.94865261 451.04401673 255.92205458 447.72290039 259.93530273 C446.09306011 261.97493143 444.62526314 263.98605388 443.23461914 266.18920898 C442.71899414 266.95233398 442.20336914 267.71545898 441.67211914 268.50170898 C441.01211914 268.50170898 440.35211914 268.50170898 439.67211914 268.50170898 C439.01211914 270.15170898 438.35211914 271.80170898 437.67211914 273.50170898 C437.01211914 273.50170898 436.35211914 273.50170898 435.67211914 273.50170898 C435.42461914 274.21713867 435.17711914 274.93256836 434.92211914 275.66967773 C433.53348319 278.81580605 431.82747968 281.13981861 429.67211914 283.81420898 C428.97086914 284.6972168 428.26961914 285.58022461 427.54711914 286.48999023 C426.92836914 287.15385742 426.30961914 287.81772461 425.67211914 288.50170898 C425.01211914 288.50170898 424.35211914 288.50170898 423.67211914 288.50170898 C423.56899414 289.09983398 423.46586914 289.69795898 423.35961914 290.31420898 C422.57300058 292.81708622 421.53666083 293.71485653 419.67211914 295.50170898 C419.34211914 296.49170898 419.01211914 297.48170898 418.67211914 298.50170898 C417.54708222 299.62674591 416.41800143 300.74800557 415.26977539 301.84936523 C410.40253428 306.88321117 406.21939284 312.47959317 402.67211914 318.50170898 C401.29711914 320.00170898 401.29711914 320.00170898 399.67211914 321.50170898 C398.98426079 322.34441251 398.29640244 323.18711603 397.58769989 324.05535603 C393.87695386 327.16890194 391.0297309 327.20619309 386.39782715 327.14335632 C385.56812172 327.15186184 384.7384163 327.16036736 383.88356829 327.16913062 C381.10497008 327.19140574 378.32771044 327.17796235 375.54907227 327.16455078 C373.55646302 327.17296345 371.56386173 327.18348833 369.5712738 327.19596863 C364.16010888 327.22305114 358.74940436 327.218307 353.33820152 327.20626807 C348.82254976 327.19914361 344.30698351 327.20763128 339.79133844 327.21617347 C329.14035519 327.23613558 318.48959634 327.23054466 307.83862305 327.20849609 C296.84517951 327.18612548 285.85232297 327.20373749 274.85893488 327.24154538 C265.42354429 327.27275725 255.98833562 327.28070207 246.55289984 327.26959163 C240.91604572 327.26309731 235.2795305 327.26514173 229.64271545 327.28891563 C224.34341063 327.31012761 219.04493589 327.30224189 213.74568367 327.27182198 C211.79981634 327.26548092 209.85388492 327.26938818 207.90806389 327.28423309 C205.25322211 327.30284718 202.60111526 327.28457204 199.94641113 327.25688171 C198.78857959 327.27798139 198.78857959 327.27798139 197.6073575 327.29950732 C194.68862475 327.23806774 192.36704775 327.06599683 190.05175114 325.1859566 C186.67211914 321.29900627 186.67211914 321.29900627 186.67211914 318.50170898 C186.01211914 318.50170898 185.35211914 318.50170898 184.67211914 318.50170898 C183.03782163 316.40721218 181.5304468 314.32388808 180.04711914 312.12670898 C179.62688477 311.52342773 179.20665039 310.92014648 178.77368164 310.29858398 C175.67211914 305.76708033 175.67211914 305.76708033 175.67211914 303.50170898 C175.01211914 303.50170898 174.35211914 303.50170898 173.67211914 303.50170898 C172.26196289 301.51733398 172.26196289 301.51733398 170.60961914 298.75170898 C167.31227758 293.4115238 163.69051912 288.43682954 159.89477539 283.44311523 C157.75787105 280.61519086 155.66585436 277.76374631 153.60961914 274.87670898 C152.7569043 273.68174805 152.7569043 273.68174805 151.88696289 272.46264648 C150.67211914 270.50170898 150.67211914 270.50170898 150.67211914 268.50170898 C150.01211914 268.50170898 149.35211914 268.50170898 148.67211914 268.50170898 C147.68296997 267.10464146 146.70398408 265.6988578 145.78735352 264.25317383 C143.94619103 261.36164588 141.92000166 258.5985087 139.92211914 255.81420898 C139.27122314 254.90554077 139.27122314 254.90554077 138.60717773 253.97851562 C131.81057836 244.3097673 131.81057836 244.3097673 124.57836914 234.97436523 C122.80175292 232.669861 121.70045429 230.6534717 120.54711914 228.00170898 C118.2012275 223.16064169 115.2346564 219.15407049 111.890625 214.95507812 C108.05852709 210.10471909 104.5688069 205.06053847 101.10961914 199.93920898 C96.89293466 193.71045916 92.59135525 187.61335271 88.03149414 181.63061523 C83.37043305 175.4493074 78.88713437 169.13672584 74.3659668 162.8527832 C72.70469713 160.54692749 71.0389203 158.24440872 69.37133789 155.94311523 C63.47254451 147.80001462 57.62468921 139.62452189 51.83764648 131.40161133 C48.55644248 126.74297728 45.23590052 122.11627494 41.87133789 117.51733398 C40.07475154 115.05380883 38.28699172 112.58454726 36.50415039 110.11108398 C35.93494873 109.32145264 35.36574707 108.53182129 34.77929688 107.71826172 C33.65716458 106.1608781 32.53554941 104.6031217 31.41455078 103.04492188 C29.83930875 100.85975308 28.2568045 98.68003656 26.67211914 96.50170898 C25.86629395 95.3828833 25.86629395 95.3828833 25.04418945 94.24145508 C24.52179688 93.52683105 23.9994043 92.81220703 23.46118164 92.07592773 C22.99663574 91.4361499 22.53208984 90.79637207 22.0534668 90.13720703 C20.58124499 88.24053614 20.58124499 88.24053614 17.67211914 86.50170898 C16.63776358 84.85614332 15.64448401 83.18464818 14.67211914 81.50170898 C13.35635969 79.66833846 12.01629529 77.85635041 10.66040039 76.05249023 C9.67211914 74.50170898 9.67211914 74.50170898 9.67211914 72.50170898 C9.01211914 72.50170898 8.35211914 72.50170898 7.67211914 72.50170898 C6.63422333 70.85837394 5.6364399 69.18927032 4.67211914 67.50170898 C4.01211914 66.84170898 3.35211914 66.18170898 2.67211914 65.50170898 C2.67211914 64.51170898 2.67211914 63.52170898 2.67211914 62.50170898 C2.01211914 62.50170898 1.35211914 62.50170898 0.67211914 62.50170898 C-0.70288086 60.80639648 -0.70288086 60.80639648 -2.32788086 58.37670898 C-5.27417055 54.04320789 -8.27141018 49.75761286 -11.32788086 45.50170898 C-12.99574301 43.16922903 -14.66185972 40.83550417 -16.32788086 38.50170898 C-17.02913086 37.51944336 -17.73038086 36.53717773 -18.45288086 35.52514648 C-19.07163086 34.65116211 -19.69038086 33.77717773 -20.32788086 32.87670898 C-20.86413086 32.12131836 -21.40038086 31.36592773 -21.95288086 30.58764648 C-25.86386366 24.65450781 -26.17693749 19.54707253 -25.32788086 12.50170898 C-23.99467559 8.48914944 -22.04983314 5.60618054 -18.45830441 3.30255032 C-12.21920413 0.38572487 -6.82920478 -0.06486245 0 0 Z M200.67211914 143.50170898 C202.32211914 146.80170898 203.97211914 150.10170898 205.67211914 153.50170898 C206.33211914 153.50170898 206.99211914 153.50170898 207.67211914 153.50170898 C207.77008789 154.21842773 207.86805664 154.93514648 207.96899414 155.67358398 C208.7739291 158.91121128 210.06388233 160.98859164 211.92211914 163.75170898 C215.08254051 168.5542462 217.9577575 173.43573449 220.67211914 178.50170898 C221.33211914 178.50170898 221.99211914 178.50170898 222.67211914 178.50170898 C222.82100586 179.5787207 222.82100586 179.5787207 222.97290039 180.67749023 C223.76775099 183.88797617 225.02373186 185.94550989 226.85961914 188.68920898 C230.27082857 193.88559495 233.49424734 199.16049722 236.67211914 204.50170898 C238.17025765 207.00282661 239.67120426 209.50225669 241.17211914 212.00170898 C243.23153047 215.43121749 245.29074601 218.86071565 247.33618164 222.29858398 C248.77025196 224.70659511 250.21983034 227.10465166 251.67211914 229.50170898 C252.21352539 230.41694336 252.75493164 231.33217773 253.31274414 232.27514648 C260.30146246 243.76560679 268.78559305 252.4430117 282.05883789 255.92749023 C293.54008032 258.45027445 305.01948229 257.44771906 315.36352539 251.52124023 C318.278239 249.63201028 321.05788329 247.78916535 323.67211914 245.50170898 C323.67211914 244.84170898 323.67211914 244.18170898 323.67211914 243.50170898 C324.53836914 243.19233398 324.53836914 243.19233398 325.42211914 242.87670898 C328.5168955 240.98545677 329.86399544 238.60134962 331.67211914 235.50170898 C331.67211914 234.84170898 331.67211914 234.18170898 331.67211914 233.50170898 C332.33211914 233.50170898 332.99211914 233.50170898 333.67211914 233.50170898 C334.02274414 232.71795898 334.37336914 231.93420898 334.73461914 231.12670898 C336.72722204 227.11303743 339.37793086 223.58826643 341.97680664 219.95092773 C343.35507076 217.95974893 344.57863127 215.99925814 345.73461914 213.87670898 C347.23709776 211.25948817 348.70378105 209.10470386 350.54711914 206.75170898 C354.76801186 201.26347444 358.47737908 195.08592916 360.67211914 188.50170898 C361.33211914 188.50170898 361.99211914 188.50170898 362.67211914 188.50170898 C363.15680664 187.61870117 363.64149414 186.73569336 364.14086914 185.82592773 C368.02247362 178.84548947 372.11745801 172.30010526 376.92211914 165.90014648 C379.12371034 162.88278712 380.87556931 159.77399617 382.67211914 156.50170898 C383.41253151 155.39109044 384.16233916 154.28666896 384.92211914 153.18920898 C386.8540102 150.75688427 386.8540102 150.75688427 386.67211914 148.50170898 C387.33211914 148.50170898 387.99211914 148.50170898 388.67211914 148.50170898 C389.00211914 146.85170898 389.33211914 145.20170898 389.67211914 143.50170898 C327.30211914 143.50170898 264.93211914 143.50170898 200.67211914 143.50170898 Z " fill="#DDCB62" transform="translate(244.327880859375,148.498291015625)"/>
<path d="M0 0 C3.23670488 1.37388439 4.86875381 2.77508861 6.8828125 5.640625 C7.66591797 6.74083984 7.66591797 6.74083984 8.46484375 7.86328125 C9.28662109 9.04470703 9.28662109 9.04470703 10.125 10.25 C10.70121094 11.06339844 11.27742188 11.87679687 11.87109375 12.71484375 C13.04154041 14.36800233 14.20856161 16.02359172 15.37207031 17.68164062 C17.56264121 20.80126588 19.78078604 23.90072915 22 27 C22.80602726 28.13018146 23.61201607 29.26039035 24.41796875 30.390625 C27.36831743 34.52088292 30.33973375 38.6358606 33.3125 42.75 C33.85962646 43.50724365 34.40675293 44.2644873 34.97045898 45.04467773 C37.74370707 48.88165963 40.519188 52.71701171 43.296875 56.55078125 C48.60038685 63.87596015 53.8704759 71.22030179 59.0625 78.625 C62.91856982 84.12365705 66.87423821 89.52786729 70.9375 94.875 C75.89300814 101.40073868 80.53269046 108.10612517 85.11791992 114.89575195 C89.33323225 121.10635032 93.75236371 127.13585974 98.30664062 133.1015625 C102.22816065 138.24084592 103.1292092 140.48599708 103.28125 146.95703125 C103.29965942 147.65583908 103.31806885 148.35464691 103.33703613 149.07463074 C103.39581408 151.32050071 103.44845533 153.56645319 103.5 155.8125 C104.0515406 179.22204807 104.9910737 200.13088965 122.7890625 217.7734375 C134.51782194 228.0049085 146.73386444 235.63550664 162.49597168 237.15774536 C163.31169254 237.23905988 164.1274134 237.3203744 164.96785307 237.40415299 C175.67281535 238.36621277 186.38937951 238.23098039 197.12695312 238.16357422 C199.48985535 238.15644353 201.85276065 238.15027666 204.21566772 238.14498901 C209.26762073 238.13198281 214.31950032 238.11292705 219.37141418 238.08919907 C226.70462798 238.05541223 234.03782116 238.03603298 241.37109107 238.02144159 C253.31349418 237.99764691 265.25587162 237.96779793 277.19824219 237.93115234 C277.91012528 237.9289721 278.62200837 237.92679185 279.35546368 237.92454554 C289.43996877 237.89337662 299.52444269 237.85617466 309.60891765 237.81654979 C310.31837522 237.81376317 311.02783278 237.81097654 311.75878906 237.80810547 C312.46735835 237.80531841 313.17592764 237.80253135 313.90596873 237.79965983 C325.8000622 237.75328929 337.69413583 237.72285235 349.58830595 237.70498669 C357.52819267 237.692386 365.46779602 237.66120464 373.40757656 237.61635184 C378.38229871 237.59259548 383.35694069 237.58614013 388.33171463 237.58415604 C390.6070203 237.57992538 392.88232715 237.5689714 395.15755844 237.5500946 C419.33497079 237.35756657 442.38141635 240.20533867 465 249 C465.81138428 249.30736084 466.62276855 249.61472168 467.45874023 249.93139648 C473.49989465 252.2682967 479.22044952 255.02403572 484.9375 258.0625 C485.77345703 258.49626953 486.60941406 258.93003906 487.47070312 259.37695312 C488.27314453 259.80041016 489.07558594 260.22386719 489.90234375 260.66015625 C490.61898193 261.03793213 491.33562012 261.41570801 492.07397461 261.80493164 C494.02820711 263.01750207 495.41153802 264.35029275 497 266 C498.66289267 267.00626326 500.33016179 268.00530501 502 269 C504.16958765 270.60207349 506.31083447 272.21843948 508.4375 273.875 C508.98470703 274.29652344 509.53191406 274.71804688 510.09570312 275.15234375 C520.74363869 283.39346784 520.74363869 283.39346784 524.125 287.625 C525.82950058 289.69731387 527.19325095 291.14239543 529.375 292.75 C529.91125 293.1625 530.4475 293.575 531 294 C531 294.99 531 295.98 531 297 C531.57234375 297.2165625 532.1446875 297.433125 532.734375 297.65625 C535.74885559 299.44414884 537.22666458 301.65234274 539.25 304.5 C540.30960938 305.96953125 540.30960938 305.96953125 541.390625 307.46875 C543 310 543 310 543 312 C543.66 312 544.32 312 545 312 C545.33 313.65 545.66 315.3 546 317 C546.66 317 547.32 317 548 317 C555.0156389 329.14245194 561.50884137 341.69399104 566 355 C566.21253418 355.60875977 566.42506836 356.21751953 566.64404297 356.84472656 C576.95860228 387.02295961 574.47404035 420.77632007 574.39111328 452.15527344 C574.37402257 458.68697755 574.38417747 465.21831509 574.40142632 471.75000668 C574.55424374 539.71848455 574.55424374 539.71848455 565.73339844 565.82666016 C565.07298254 567.78372485 564.45928456 569.75640561 563.8515625 571.73046875 C560.49059146 582.08750361 555.23680224 591.49600432 550 601 C548.68 601 547.36 601 546 601 C544.54296875 599.50976562 544.54296875 599.50976562 543.1875 597.40625 C542.67550049 596.63112061 542.16350098 595.85599121 541.63598633 595.05737305 C541.09611084 594.21343994 540.55623535 593.36950684 540 592.5 C538.84028187 590.74408065 537.67746362 588.99020529 536.51171875 587.23828125 C535.92567871 586.35479004 535.33963867 585.47129883 534.73583984 584.56103516 C532.21555719 580.84264344 529.53522557 577.25908053 526.8125 573.6875 C520.40749853 565.24918125 514.26825838 556.64060919 508.16796875 547.98046875 C507.17454166 546.57026847 506.18105103 545.16011296 505.1875 543.75 C504.69024414 543.04415771 504.19298828 542.33831543 503.68066406 541.61108398 C494.64473826 528.80633993 485.42102101 516.13103293 476.16015625 503.48828125 C471.63604787 497.2988569 467.20325334 491.04935144 462.79418945 484.77783203 C458.34906807 478.46641696 453.8301572 472.20991716 449.27661133 465.97631836 C448.76122803 465.26741455 448.24584473 464.55851074 447.71484375 463.828125 C447.26230225 463.2084082 446.80976074 462.58869141 446.34350586 461.95019531 C445.67847046 460.98484863 445.67847046 460.98484863 445 460 C444.45811035 459.21995605 443.9162207 458.43991211 443.35791016 457.63623047 C441.76409822 454.54202312 441.60366229 452.45895691 441.55859375 448.9921875 C441.53216797 447.83976562 441.50574219 446.68734375 441.47851562 445.5 C441.46498047 444.30375 441.45144531 443.1075 441.4375 441.875 C441.17757402 424.3540635 438.83825636 408.72865856 427 395 C426.29230469 394.09701172 426.29230469 394.09701172 425.5703125 393.17578125 C421.56184145 388.18144299 416.76335513 383.88167756 411 381 C411 380.34 411 379.68 411 379 C410.41992188 378.81824219 409.83984375 378.63648438 409.2421875 378.44921875 C408.46101563 378.19785156 407.67984375 377.94648437 406.875 377.6875 C406.10929687 377.44386719 405.34359375 377.20023438 404.5546875 376.94921875 C402 376 402 376 399.23579311 374.54463959 C386.07328801 368.26138051 370.42562526 369.57574321 356.23803711 369.61523438 C353.75923412 369.61112258 351.28043307 369.60565813 348.80163574 369.59895325 C343.4882301 369.58727886 338.17493245 369.58438846 332.86152458 369.58930969 C325.15556521 369.59616609 317.44972661 369.58351437 309.74378891 369.56580251 C297.20558138 369.537229 284.667387 369.51966199 272.12915039 369.51123047 C271.00662027 369.5104697 271.00662027 369.5104697 269.86141277 369.50969356 C264.55344201 369.50616862 259.24547105 369.50303947 253.9375 369.5 C247.88614889 369.49653274 241.83479797 369.49288236 235.78344727 369.48876953 C235.03814312 369.48826692 234.29283897 369.4877643 233.52494984 369.48724645 C221.03770669 369.47846142 208.55050836 369.45794253 196.06329542 369.42928743 C188.39033396 369.41223817 180.71750031 369.40546317 173.04452247 369.41259348 C167.14509209 369.41731891 161.24574919 369.40670438 155.34633636 369.39084435 C152.94801943 369.38688125 150.54968752 369.38789794 148.15137672 369.39461708 C111.27755856 369.48988564 65.00837358 361.82036124 37.37890625 334.390625 C36.92386719 333.93171875 36.46882813 333.4728125 36 333 C35.34 332.67 34.68 332.34 34 332 C34 331.34 34 330.68 34 330 C33.45988281 329.77570313 32.91976562 329.55140625 32.36328125 329.3203125 C29.25247928 327.58237686 26.77740466 325.28965717 24.1875 322.875 C23.39617676 322.14228882 23.39617676 322.14228882 22.58886719 321.39477539 C18.47333597 317.53851507 14.28070381 313.60915782 11 309 C11 308.34 11 307.68 11 307 C10.34 307 9.68 307 9 307 C8.06372769 305.68228341 7.14149059 304.35293957 6.28125 302.984375 C4.15135858 299.68564073 1.79765455 296.54195765 -0.51171875 293.3671875 C-1.89537088 291.16641798 -2.56146162 289.53767545 -3 287 C-3.66 287 -4.32 287 -5 287 C-6.17371766 284.65256469 -7.34588648 282.30449375 -8.51171875 279.953125 C-9.4683895 278.05484919 -10.44842335 276.1680725 -11.45703125 274.296875 C-16.09166465 265.54120874 -19.16256622 256.45948534 -22 247 C-22.20399414 246.32420898 -22.40798828 245.64841797 -22.61816406 244.95214844 C-28.51901843 224.91320645 -28.30892065 204.26726812 -28.26865101 183.54896808 C-28.26348834 180.04656367 -28.26831018 176.54416827 -28.27142334 173.04176331 C-28.27503327 167.16787804 -28.2703425 161.29404353 -28.26074219 155.42016602 C-28.24985833 148.6842999 -28.25339484 141.94855493 -28.264395 135.21269172 C-28.27354755 129.36829278 -28.27471484 123.52392973 -28.26951766 117.67952591 C-28.26644189 114.21561046 -28.26586446 110.75175144 -28.27259064 107.28783989 C-28.32269386 69.6792981 -28.32269386 69.6792981 -23.75 52.8125 C-23.53674072 51.99354248 -23.32348145 51.17458496 -23.10375977 50.33081055 C-20.95160903 42.33677569 -18.14255602 34.65181923 -15 27 C-14.62746094 26.08347656 -14.25492188 25.16695313 -13.87109375 24.22265625 C-11.99055657 19.79048822 -9.75853859 15.96539923 -7 12 C-5.62883832 9.68713483 -4.32039568 7.3426375 -3 5 C-2.00522955 3.33020674 -1.00739746 1.66220581 0 0 Z " fill="#0EA98D" transform="translate(263,236)"/>
<path d="M0 0 C0.64266688 -0.00594739 1.28533377 -0.01189478 1.9474754 -0.01802239 C4.10363995 -0.03672813 6.25978438 -0.04847807 8.41599751 -0.06017971 C9.97648808 -0.0720726 11.53697577 -0.08434965 13.09746057 -0.09697813 C17.3880303 -0.13030018 21.67861963 -0.1572215 25.96924126 -0.18286955 C29.64875605 -0.20558781 33.32824257 -0.23185607 37.00773456 -0.25797171 C71.88222884 -0.50397636 106.75747204 -0.63657781 141.63263702 -0.74338531 C146.17104584 -0.75753271 150.70945371 -0.77194905 155.24786091 -0.78660488 C156.3758533 -0.79023635 157.50384568 -0.79386781 158.66601966 -0.79760932 C176.94349574 -0.85816443 195.22011071 -0.97815019 213.49710973 -1.12083942 C232.26226963 -1.26612285 251.02698076 -1.35079019 269.79268724 -1.37834543 C281.36757896 -1.39718555 292.94025071 -1.46277587 304.5144854 -1.58827614 C312.44813768 -1.66970557 320.38058588 -1.69198227 328.3146136 -1.66779441 C332.89250618 -1.6555595 337.46643819 -1.66922612 342.04366589 -1.75300503 C368.79003059 -2.21806516 368.79003059 -2.21806516 374.89676023 1.71571755 C378.48145327 5.34548229 380.32623337 9.31633946 381.80382502 14.14588177 C382.91974021 17.41631323 384.73026517 20.0950145 386.58355427 23.00367832 C387.86777088 25.18238554 389.15031057 27.36208203 390.43121052 29.54274082 C394.9582108 37.22344194 399.50724861 44.88777115 404.18121052 52.48024082 C408.06602452 58.79297332 411.86195942 65.15299423 415.61871052 71.54274082 C421.48082079 81.51269833 427.46764805 91.40359388 433.4941988 101.27467442 C435.50174134 104.56776951 437.50008615 107.8662036 439.49371052 111.16774082 C440.17465778 112.28890293 440.85560505 113.41006504 441.55718708 114.56520176 C442.19881794 115.63802402 442.8404488 116.71084629 443.50152302 117.81617832 C444.07789509 118.77443516 444.65426716 119.73269199 445.24810505 120.71998692 C446.49371052 123.16774082 446.49371052 123.16774082 446.49371052 126.16774082 C443.16120367 126.81788688 439.82756809 127.46206002 436.49371052 128.10524082 C435.09185505 128.37884434 435.09185505 128.37884434 433.66167927 128.6579752 C432.73999958 128.83522129 431.81831989 129.01246738 430.86871052 129.19508457 C430.03081989 129.35742588 429.19292927 129.51976719 428.32964802 129.68702793 C422.14616602 130.73517497 416.19532885 131.29345031 409.9210825 131.30754852 C408.83882344 131.31197566 408.83882344 131.31197566 407.73470056 131.31649223 C405.32837036 131.3251219 402.92208857 131.32675822 400.51574421 131.32837009 C398.76847558 131.33310525 397.02120804 131.33825672 395.27394176 131.34378773 C390.48091911 131.35765138 385.68790402 131.36526526 380.89486647 131.37176073 C376.78185408 131.37814548 372.66885402 131.38821341 368.55584934 131.39832138 C355.01148726 131.43158814 341.46711768 131.45315198 327.92272818 131.47152123 C324.39582208 131.47631895 320.86891628 131.4813019 317.3420105 131.48632646 C295.43141311 131.51729114 273.52081305 131.54396996 251.61019993 131.56074524 C246.53914351 131.56469458 241.46808715 131.5686976 236.39703083 131.57277012 C235.1366819 131.57377848 233.87633298 131.57478684 232.57779166 131.57582576 C212.15212342 131.59283988 191.72657616 131.63396139 171.30096701 131.68479311 C150.32310596 131.73656941 129.34530717 131.76568713 108.36738276 131.77294213 C96.59184139 131.77760331 84.81649846 131.79234452 73.04102039 131.83268642 C63.01516394 131.86699339 52.98954178 131.88092272 42.96362999 131.86826228 C37.85012485 131.86243782 32.73711523 131.86628509 27.62368488 131.89643192 C22.93782949 131.92383229 18.25282078 131.92326721 13.56694624 131.90092147 C11.87652635 131.89770413 10.18604937 131.90453418 8.49572423 131.9227187 C-2.40906124 132.03287271 -12.05420064 131.04019706 -20.52514338 123.33025354 C-27.22489456 116.11459603 -28.65324636 108.58542714 -28.66742229 99.03199863 C-28.6723872 98.22642521 -28.6773521 97.42085178 -28.68246746 96.59086704 C-28.69703385 93.93419117 -28.70388222 91.27757502 -28.70941448 88.62086582 C-28.71517092 86.76627191 -28.72092859 84.91167799 -28.72668743 83.05708408 C-28.73718203 79.17013873 -28.74303463 75.28321397 -28.74652386 71.39625645 C-28.75200223 66.43224467 -28.77602276 61.46850804 -28.80449581 56.50458241 C-28.82318337 52.67312435 -28.82833106 48.84173174 -28.82985973 45.01023197 C-28.8328735 43.18112021 -28.84085858 41.35200925 -28.85404491 39.52294254 C-28.87123223 36.95544002 -28.86919445 34.38859893 -28.86273479 31.82106113 C-28.87194958 31.07581181 -28.88116436 30.33056248 -28.89065838 29.56272984 C-28.83416807 22.34126581 -26.98582162 15.37963771 -22.50628948 9.60524082 C-22.01128948 8.94395176 -21.51628948 8.2826627 -21.00628948 7.60133457 C-19.50628948 6.16774082 -19.50628948 6.16774082 -16.50628948 6.16774082 C-16.50628948 5.50774082 -16.50628948 4.84774082 -16.50628948 4.16774082 C-11.21323738 0.38698932 -6.36353944 0.04613285 0 0 Z " fill="#0DA187" transform="translate(263.5062894821167,787.8322591781616)"/>
<path d="M0 0 C1.79512355 -0.00561551 3.59024344 -0.01252205 5.38535762 -0.02059597 C10.28274636 -0.03882954 15.17998056 -0.03856361 20.07739544 -0.03501284 C25.37257405 -0.0343978 30.66770433 -0.0509852 35.96286011 -0.06518555 C46.32095404 -0.09003634 56.67899673 -0.09834678 67.03711799 -0.10002268 C75.45585165 -0.10145062 83.87456848 -0.10762708 92.29329681 -0.11712456 C116.17642198 -0.14351888 140.0595068 -0.15738566 163.94264665 -0.15513314 C165.22845985 -0.15501327 166.51427306 -0.1548934 167.83905029 -0.1547699 C169.77013032 -0.15458593 169.77013032 -0.15458593 171.74022207 -0.15439826 C192.62599294 -0.15317765 213.51160189 -0.18192345 234.3973259 -0.224185 C255.85676446 -0.26726433 277.31612397 -0.28799649 298.77560687 -0.28540367 C310.81813834 -0.28440776 322.86049976 -0.29265009 334.90299225 -0.32493782 C345.14982707 -0.3522363 355.39641463 -0.35879178 365.64327005 -0.33840955 C370.86996712 -0.32860769 376.09618958 -0.32846551 381.32284164 -0.3544693 C386.10952444 -0.37803952 390.89535561 -0.37379793 395.68201742 -0.3476169 C397.41124431 -0.34300644 399.1405345 -0.34848158 400.86968675 -0.36519713 C410.19585725 -0.44936565 418.70535576 -0.44357704 425.90740967 6.40113831 C426.25857007 7.10658844 426.60973048 7.81203857 426.97153211 8.53886598 C427.81452833 10.76221482 427.81452833 10.76221482 430.90740967 11.40113831 C432.04022217 13.29176331 432.04022217 13.29176331 433.03240967 15.65113831 C433.36498779 16.41941956 433.69756592 17.18770081 434.04022217 17.97926331 C435.84015606 23.0061057 436.06023449 27.84037471 436.06854248 33.13795471 C436.07350739 33.90130127 436.07847229 34.66464783 436.08358765 35.4511261 C436.09815145 37.96832698 436.10500301 40.48546476 436.11053467 43.00270081 C436.11336205 43.86699078 436.11618942 44.73128075 436.11910248 45.62176132 C436.13407498 50.19910232 436.14331557 54.77641197 436.14764404 59.35377502 C436.15311352 64.05752417 436.17711479 68.76098164 436.205616 73.46463966 C436.2243441 77.1023082 436.22945345 80.73990805 436.23097992 84.3776207 C436.23398607 86.11018333 436.2419448 87.84274536 436.2551651 89.57526016 C436.42316135 113.29145158 436.42316135 113.29145158 428.79022217 122.61207581 C422.74117466 128.35992593 416.05284773 131.51488001 407.76377487 131.55211926 C406.46977886 131.56027729 405.17578285 131.56843533 403.84257483 131.57684058 C402.39810195 131.58089724 400.95362874 131.584841 399.50915527 131.58868408 C397.98125199 131.59627659 396.4533507 131.60427778 394.92545152 131.61265403 C390.71577135 131.6343636 386.50608849 131.64966065 382.29637694 131.6637944 C378.68840296 131.67668916 375.08044935 131.69324359 371.47249046 131.70977166 C337.28408634 131.8657586 303.09521082 131.94077129 268.90652084 132.00139141 C264.4567843 132.00942036 260.00704804 132.01758865 255.55731201 132.02589417 C254.45132661 132.02795177 253.34534121 132.03000937 252.20584109 132.03212932 C234.28213402 132.06656312 216.35878403 132.13922824 198.43526635 132.22680178 C180.04193442 132.31592835 161.6487879 132.3673105 143.25524449 132.38269359 C132.92438042 132.39235869 122.59416 132.41918709 112.26351166 132.48900414 C103.46695911 132.54842843 94.67113569 132.57422799 85.87438717 132.55566528 C81.38489949 132.54726242 76.89698545 132.55517605 72.40775108 132.60665131 C68.29746988 132.65341425 64.18985863 132.65402363 60.07949391 132.61791454 C58.59288276 132.61299266 57.106099 132.62500127 55.61979565 132.65564891 C44.5273743 132.8707399 44.5273743 132.8707399 40.52003527 129.23535693 C38.70701568 126.69322736 37.2754173 124.20342052 35.90740967 121.40113831 C35.12438319 120.05699286 34.33559439 118.71615244 33.53631592 117.38160706 C32.84288614 116.11981631 32.15410405 114.85546063 31.46990967 113.58863831 C26.73704711 105.01316372 21.62687739 96.70480801 16.39569092 88.42457581 C12.19998884 81.77024575 8.15210651 75.12909325 4.46600342 68.17457581 C2.23011198 64.19592188 -0.27835156 60.40949246 -2.77642822 56.59205627 C-5.59365863 52.25739951 -8.07952167 47.81471245 -10.49884033 43.24488831 C-12.39243696 39.86611784 -14.47259284 36.64086202 -16.59259033 33.40113831 C-19.87058886 28.38860872 -22.87440666 23.31640931 -25.67071533 18.01441956 C-27.65083834 14.37512755 -29.85985093 10.88851206 -32.08868408 7.39723206 C-32.41997314 6.73852112 -32.75126221 6.07981018 -33.09259033 5.40113831 C-32.76259033 4.74113831 -32.43259033 4.08113831 -32.09259033 3.40113831 C-21.59934205 -0.08038585 -10.910281 -0.03267081 0 0 Z " fill="#0DA187" transform="translate(401.09259033203125,160.59886169433594)"/>
</svg>
